# xmcd
#
# Track frame offsets:
#	150
#	18662
#	35495
#	61983
#	78043
#	100083
#	118316
#	136718
#	160984
#	181466
#	198062
#	217591
#	234891
#	254946
#	272065
#	289576
#	310916
#	331796
#
# Disc length: 4669 seconds
#
# Revision: 1
# Processed by: cddbd v1.5.2PL0 Copyright (c) Steve Scherf et al.
# Submitted via: audiograbber 1.83.01
#
DISCID=f3123b12
DTITLE=Soy - Best Of
DYEAR=2010
DGENRE=Spanish
TTITLE0=amor
TTITLE1=barry white
TTITLE2=no lo crèo
TTITLE3=lola si si
TTITLE4=asturias
TTITLE5=Le vieux gitan
TTITLE6=indio
TTITLE7=La Dona
TTITLE8=caricaia del cielo
TTITLE9=donde vas
TTITLE10=poéma
TTITLE11=La mama
TTITLE12=theme
TTITLE13=messe sévillane
TTITLE14=La quiero a mourir
TTITLE15=sinplementé
TTITLE16=may way
TTITLE17=marquise
EXTD=Adjusted spelling
EXTT0=
EXTT1=
EXTT2=
EXTT3=
EXTT4=
EXTT5=
EXTT6=
EXTT7=
EXTT8=
EXTT9=
EXTT10=
EXTT11=
EXTT12=
EXTT13=
EXTT14=
EXTT15=
EXTT16=
EXTT17=
PLAYORDER=
